<svg width="14.000000" height="12.000000" viewBox="0 0 14 12" fill="none" xmlns="http://www.w3.org/2000/svg" xmlns:xlink="http://www.w3.org/1999/xlink">
	<desc>
			Created with Pixso.
	</desc>
	<defs/>
	<path id="A." d="M6.63 8.82L7.41 11.08L9.39 11.08L5.35 -0.12L3.14 -0.12L-0.93 11.08L1.07 11.08L1.86 8.82L6.63 8.82ZM6.02 7.09L2.47 7.09L4.24 2.04L6.02 7.09ZM13.1 11.18Q13.31 11.09 13.49 10.92Q13.67 10.74 13.75 10.53Q13.84 10.31 13.84 10.07Q13.84 9.82 13.75 9.61Q13.67 9.4 13.49 9.22Q13.31 9.04 13.1 8.96Q12.89 8.87 12.64 8.87Q12.35 8.87 12.12 8.98Q11.94 9.07 11.79 9.22Q11.62 9.39 11.53 9.6Q11.44 9.81 11.44 10.07Q11.44 10.31 11.53 10.53Q11.62 10.74 11.79 10.92Q11.97 11.09 12.19 11.18Q12.4 11.27 12.64 11.27Q12.89 11.27 13.1 11.18Z" fill="#FFFFFF" fill-opacity="1.000000" fill-rule="evenodd"/>
</svg>
