<svg width="192.000000" height="132.000488" viewBox="0 0 192 132" fill="none" xmlns="http://www.w3.org/2000/svg" xmlns:xlink="http://www.w3.org/1999/xlink">
	<desc>
			Created with Pixso.
	</desc>
	<defs>
		<filter id="filter_1_190_dd" x="0.000000" y="19.960449" width="91.251862" height="86.682129" filterUnits="userSpaceOnUse" color-interpolation-filters="sRGB">
			<feFlood flood-opacity="0" result="BackgroundImageFix"/>
			<feColorMatrix in="SourceAlpha" type="matrix" values="0 0 0 0 0 0 0 0 0 0 0 0 0 0 0 0 0 0 127 0" result="hardAlpha"/>
			<feOffset dx="0" dy="4"/>
			<feGaussianBlur stdDeviation="3.33333"/>
			<feComposite in2="hardAlpha" operator="out" k2="-1" k3="1"/>
			<feColorMatrix type="matrix" values="0 0 0 0 0 0 0 0 0 0 0 0 0 0 0 0 0 0 0.15 0"/>
			<feBlend mode="normal" in2="BackgroundImageFix" result="effect_dropShadow_1"/>
			<feBlend mode="normal" in="SourceGraphic" in2="effect_dropShadow_1" result="shape"/>
		</filter>
		<linearGradient id="paint_linear_1_184_0" x1="126.788315" y1="7.167676" x2="124.549828" y2="137.263519" gradientUnits="userSpaceOnUse">
			<stop stop-color="#FFFFFF" stop-opacity="0.000000"/>
			<stop offset="1.000000" stop-color="#64B5F6" stop-opacity="0.600000"/>
		</linearGradient>
		<linearGradient id="paint_linear_1_185_0" x1="106.231155" y1="68.209381" x2="102.444092" y2="103.459251" gradientUnits="userSpaceOnUse">
			<stop stop-color="#42A5F5"/>
			<stop offset="1.000000" stop-color="#1565C0"/>
		</linearGradient>
		<linearGradient id="paint_linear_1_186_0" x1="62.533806" y1="105.322266" x2="104.443672" y2="110.921539" gradientUnits="userSpaceOnUse">
			<stop stop-color="#FFE082"/>
			<stop offset="1.000000" stop-color="#FFA726"/>
		</linearGradient>
		<linearGradient id="paint_linear_1_187_0" x1="9414.435547" y1="2544.475830" x2="9417.462891" y2="2315.614014" gradientUnits="userSpaceOnUse">
			<stop stop-color="#FFE082"/>
			<stop offset="1.000000" stop-color="#FFA726"/>
		</linearGradient>
		<linearGradient id="paint_linear_1_188_0" x1="14987.347656" y1="4075.813965" x2="15780.463867" y2="4075.813965" gradientUnits="userSpaceOnUse">
			<stop stop-color="#FFE082"/>
			<stop offset="1.000000" stop-color="#FFA726"/>
		</linearGradient>
		<linearGradient id="paint_linear_1_209_0" x1="42948.628906" y1="15103.609375" x2="48394.503906" y2="21245.093750" gradientUnits="userSpaceOnUse">
			<stop stop-color="#42A5F5"/>
			<stop offset="1.000000" stop-color="#1565C0"/>
		</linearGradient>
		<linearGradient id="paint_linear_1_210_0" x1="23009.818359" y1="12265.872070" x2="22808.501953" y2="9714.911133" gradientUnits="userSpaceOnUse">
			<stop stop-color="#FFE082"/>
			<stop offset="1.000000" stop-color="#FFA726"/>
		</linearGradient>
	</defs>
	<rect id="1" width="182.000000" height="132.000000" transform="translate(10.000000 0.000244)" fill="#FFFFFF" fill-opacity="0"/>
	<path id="Vector" d="M191.995 66.0002C191.988 78.1295 188.67 90.0228 182.403 100.377C176.137 110.731 167.164 119.146 156.467 124.701C155.841 125.032 155.205 125.347 154.564 125.653C154.276 125.795 153.993 125.928 153.7 126.06C151.873 126.905 149.998 127.663 148.075 128.335C146.561 128.87 145.005 129.353 143.435 129.771C128.603 133.753 112.856 132.371 98.9297 125.866C98.3592 125.597 97.7886 125.322 97.2281 125.037C86.8012 119.779 77.956 111.81 71.6064 101.953C65.2569 92.0957 61.6334 80.7084 61.1102 68.9672C60.587 57.2261 63.1831 45.5571 68.6303 35.1658C74.0775 24.7745 82.1783 16.038 92.0955 9.85883C102.013 3.67963 113.387 0.281921 125.043 0.0167847C136.698 -0.248352 148.213 2.62872 158.396 8.35071C168.58 14.0726 177.063 22.432 182.97 32.565C188.877 42.698 191.992 54.2371 191.995 65.9901L191.995 66.0002Z" fill="url(#paint_linear_1_184_0)" fill-opacity="1.000000" fill-rule="nonzero"/>
	<path id="Vector" d="M100.854 106.742L93.6228 95.3556C93.6228 95.3556 113.654 72.0118 115.658 70.6323C115.658 70.6323 105.555 87.7202 100.854 106.742Z" fill="url(#paint_linear_1_185_0)" fill-opacity="1.000000" fill-rule="nonzero"/>
	<path id="Vector" d="M93.6229 95.3556L79.9895 107.572L54.9092 95.3556L35.7216 96.4144C35.7216 96.4144 47.6735 100.487 51.0363 100.319L54.4043 100.151C54.4043 100.151 75.0007 120.171 79.7371 121.698C84.4734 123.225 100.031 111.252 100.031 111.252L100.934 106.778L93.6229 95.3556Z" fill="url(#paint_linear_1_186_0)" fill-opacity="1.000000" fill-rule="nonzero"/>
	<path id="Vector" d="M131.241 67.8683C129.346 68.793 127.309 69.3853 125.217 69.6194C122.798 69.9859 119.122 68.6319 119.122 68.6319C121.899 66.4278 121.253 61.2307 121.253 61.2307L121.314 61.2001C124.278 60.9711 126.757 59.276 128.489 57.637C127.863 62.0858 131.241 67.8683 131.241 67.8683Z" fill="url(#paint_linear_1_187_0)" fill-opacity="1.000000" fill-rule="nonzero"/>
	<path id="Vector" d="M131.241 51.3149L131.241 54.369C130.452 55.5555 129.53 56.6469 128.494 57.6217C126.762 59.2658 124.283 60.9609 121.319 61.1849C119.972 61.2886 118.62 61.0886 117.36 60.5995C109.281 57.5453 114.962 41.3839 114.962 41.3839C117.527 34.8073 129.14 37.9886 129.14 37.9886C130.695 39.8568 130.993 45.0743 130.933 45.5833C130.674 46.2984 130.335 46.9815 129.923 47.6194C129.923 47.6194 132.129 45.5222 132.887 46.9169C133.644 48.3116 131.241 51.3149 131.241 51.3149Z" fill="url(#paint_linear_1_188_0)" fill-opacity="1.000000" fill-rule="nonzero"/>
	<path id="Vector" d="M131.241 54.3793L131.241 51.3251C131.241 51.3251 133.639 48.3473 132.882 46.9424C132.124 45.5375 129.918 47.6448 129.918 47.6448C130.33 47.007 130.669 46.3239 130.928 45.6088C130.988 45.0997 130.736 40.1775 129.135 38.0142C129.135 38.0142 117.522 34.8328 114.957 41.4093C114.957 41.4093 111.634 40.5593 108.771 36.5736C104.09 30.053 109.68 29.2538 115.219 30.5111C121.94 32.0382 128.676 27.0294 136.376 32.1196C144.076 37.2099 137.174 48.78 131.241 54.3793Z" fill="#262F72" fill-opacity="1.000000" fill-rule="nonzero"/>
	<g filter="url(#filter_1_190_dd)">
		<path id="Vector" d="M12.8681 25.9604L78.3838 25.9604C79.9678 25.9604 81.2519 27.2549 81.2519 28.8517L81.2519 89.7513C81.2519 91.3481 79.9678 92.6425 78.3838 92.6425L12.8681 92.6425C11.2841 92.6425 10 91.3481 10 89.7513L10 28.8517C10 27.2549 11.2841 25.9604 12.8681 25.9604Z" fill="#FFFFFF" fill-opacity="1.000000" fill-rule="evenodd"/>
	</g>
	<path id="Vector" d="M20.9117 38.0447C20.7299 38.2521 20.4962 38.4068 20.2351 38.4926C19.9235 38.6016 19.5954 38.655 19.2656 38.6504C18.9234 38.6583 18.5852 38.5739 18.2861 38.4061C18.0027 38.2401 17.7756 37.9918 17.6347 37.6934C17.4742 37.3497 17.3931 36.9738 17.3974 36.5939L17.3974 36.2987C17.3882 35.9123 17.4623 35.5285 17.6145 35.1738C17.7453 34.8729 17.9637 34.6191 18.2406 34.4459C18.5757 34.2629 18.9545 34.1771 19.3351 34.1977C19.7156 34.2184 20.083 34.3448 20.3967 34.5629C20.6979 34.8406 20.8792 35.2261 20.9016 35.637L20.0382 35.637C20.0186 35.4294 19.9254 35.2361 19.7756 35.0923C19.6169 34.9697 19.4199 34.9083 19.2202 34.9193C19.0856 34.9117 18.9513 34.939 18.8302 34.9988C18.709 35.0585 18.6051 35.1485 18.5284 35.2603C18.3512 35.5685 18.2687 35.9228 18.2911 36.2783L18.2911 36.5532C18.2692 36.9114 18.3593 37.2674 18.5486 37.5713C18.636 37.6874 18.7503 37.7802 18.8814 37.8414C19.0126 37.9026 19.1567 37.9305 19.301 37.9225C19.5566 37.945 19.8112 37.8686 20.0129 37.7087L20.0129 36.9604L19.205 36.9604L19.205 36.3038L20.9016 36.3038L20.9117 38.0447Z" fill="#64B5F6" fill-opacity="1.000000" fill-rule="nonzero"/>
	<path id="Vector" d="M26.4054 34.1914L72.8295 34.1914C73.3956 34.1914 73.8545 34.6541 73.8545 35.2247L73.8545 38.9813C73.8545 39.552 73.3956 40.0146 72.8295 40.0146L26.4054 40.0146C25.8393 40.0146 25.3804 39.552 25.3804 38.9813L25.3804 35.2247C25.3804 34.6541 25.8393 34.1914 26.4054 34.1914Z" fill="#E7EEF2" fill-opacity="1.000000" fill-rule="evenodd"/>
	<path id="Vector" d="M25.3804 43.3029L73.8545 43.3029L73.8545 44.3209L25.3804 44.3209L25.3804 43.3029Z" fill="#BBDEFB" fill-opacity="1.000000" fill-rule="evenodd"/>
	<path id="Vector" d="M25.3804 45.5935L73.8545 45.5935L73.8545 46.6116L25.3804 46.6116L25.3804 45.5935Z" fill="#E7E8E9" fill-opacity="1.000000" fill-rule="evenodd"/>
	<path id="Vector" d="M25.3804 47.884L73.8545 47.884L73.8545 48.9021L25.3804 48.9021L25.3804 47.884Z" fill="#E7E8E9" fill-opacity="1.000000" fill-rule="evenodd"/>
	<path id="Vector" d="M25.3804 50.1747L73.8545 50.1747L73.8545 51.1927L25.3804 51.1927L25.3804 50.1747Z" fill="#E7E8E9" fill-opacity="1.000000" fill-rule="evenodd"/>
	<path id="Vector" d="M25.3804 54.4607L73.8545 54.4607L73.8545 55.4788L25.3804 55.4788L25.3804 54.4607Z" fill="#BBDEFB" fill-opacity="1.000000" fill-rule="evenodd"/>
	<path id="Vector" d="M25.3804 56.7512L73.8545 56.7512L73.8545 57.7693L25.3804 57.7693L25.3804 56.7512Z" fill="#E7E8E9" fill-opacity="1.000000" fill-rule="evenodd"/>
	<path id="Vector" d="M25.3804 59.0419L73.8545 59.0419L73.8545 60.0599L25.3804 60.0599L25.3804 59.0419Z" fill="#E7E8E9" fill-opacity="1.000000" fill-rule="evenodd"/>
	<path id="Vector" d="M25.3804 61.3325L73.8545 61.3325L73.8545 62.3506L25.3804 62.3506L25.3804 61.3325Z" fill="#E7E8E9" fill-opacity="1.000000" fill-rule="evenodd"/>
	<path id="Vector" d="M25.3804 65.4912L73.8545 65.4912L73.8545 66.5093L25.3804 66.5093L25.3804 65.4912Z" fill="#BBDEFB" fill-opacity="1.000000" fill-rule="evenodd"/>
	<path id="Vector" d="M25.3804 67.7819L73.8545 67.7819L73.8545 68.7999L25.3804 68.7999L25.3804 67.7819Z" fill="#E7E8E9" fill-opacity="1.000000" fill-rule="evenodd"/>
	<path id="Vector" d="M25.3804 70.0725L73.8545 70.0725L73.8545 71.0906L25.3804 71.0906L25.3804 70.0725Z" fill="#E7E8E9" fill-opacity="1.000000" fill-rule="evenodd"/>
	<path id="Vector" d="M25.3804 72.363L73.8545 72.363L73.8545 73.3811L25.3804 73.3811L25.3804 72.363Z" fill="#E7E8E9" fill-opacity="1.000000" fill-rule="evenodd"/>
	<path id="Vector" d="M25.3804 76.5217L73.8545 76.5217L73.8545 77.5398L25.3804 77.5398L25.3804 76.5217Z" fill="#BBDEFB" fill-opacity="1.000000" fill-rule="evenodd"/>
	<path id="Vector" d="M25.3804 78.8124L73.8545 78.8124L73.8545 79.8304L25.3804 79.8304L25.3804 78.8124Z" fill="#E7E8E9" fill-opacity="1.000000" fill-rule="evenodd"/>
	<path id="Vector" d="M25.3804 81.103L73.8545 81.103L73.8545 82.1211L25.3804 82.1211L25.3804 81.103Z" fill="#E7E8E9" fill-opacity="1.000000" fill-rule="evenodd"/>
	<path id="Vector" d="M25.3804 83.3936L73.8545 83.3936L73.8545 84.4116L25.3804 84.4116L25.3804 83.3936Z" fill="#E7E8E9" fill-opacity="1.000000" fill-rule="evenodd"/>
	<path id="Vector" d="M148.707 92.4594C152.16 102.823 154.72 114.821 156.468 124.701C155.841 125.032 155.205 125.347 154.564 125.653C154.276 125.795 153.993 125.928 153.7 126.06C151.873 126.905 149.998 127.663 148.075 128.335C146.561 128.87 145.005 129.353 143.435 129.771C128.603 133.753 112.856 132.371 98.9298 125.867C98.3592 125.597 97.7886 125.322 97.2281 125.037C98.238 119.809 99.4397 113.665 100.849 106.748C101.36 104.24 101.897 101.63 102.459 98.9188C105.353 85.0276 109.503 77.4635 112.932 73.3658L112.967 73.3251C113.618 72.5461 114.324 71.8147 115.078 71.1364C115.099 71.1117 115.122 71.0895 115.148 71.0701C115.32 70.9174 115.492 70.7749 115.653 70.6375C117.719 68.9424 119.122 68.632 119.122 68.632L119.248 68.6777L119.319 68.6777C120.416 69.1138 121.566 69.3997 122.738 69.5278L122.935 69.5278L122.965 69.5278C123.713 69.6 124.466 69.6119 125.217 69.5635L125.262 69.5635C127.346 69.4296 129.376 68.8389 131.21 67.8328C133.361 68.5499 135.387 69.6028 137.214 70.9531C142.435 74.8166 152.953 88.9827 152.953 88.9827L148.707 92.4594Z" fill="url(#paint_linear_1_209_0)" fill-opacity="1.000000" fill-rule="nonzero"/>
	<path id="Vector" d="M167.94 111.802C167.909 113.217 166.632 116.088 164.764 119.57C162.128 121.487 159.353 123.202 156.462 124.701C155.836 125.032 155.2 125.347 154.559 125.653C154.271 125.795 153.988 125.928 153.695 126.06C151.867 126.905 149.992 127.663 148.07 128.335L152.948 112.662L140.325 99.3007L148.702 92.4594L152.948 88.9929C152.948 88.9929 168.071 106.33 167.94 111.802Z" fill="url(#paint_linear_1_210_0)" fill-opacity="1.000000" fill-rule="nonzero"/>
</svg>
