<svg width="171.000031" height="131.020996" viewBox="0 0 171 131.021" fill="none" xmlns="http://www.w3.org/2000/svg" xmlns:xlink="http://www.w3.org/1999/xlink">
	<desc>
			Created with Pixso.
	</desc>
	<defs>
		<filter id="filter_1_230_dd" x="0.000000" y="46.863403" width="116.145142" height="76.276123" filterUnits="userSpaceOnUse" color-interpolation-filters="sRGB">
			<feFlood flood-opacity="0" result="BackgroundImageFix"/>
			<feColorMatrix in="SourceAlpha" type="matrix" values="0 0 0 0 0 0 0 0 0 0 0 0 0 0 0 0 0 0 127 0" result="hardAlpha"/>
			<feOffset dx="5" dy="5"/>
			<feGaussianBlur stdDeviation="6.66667"/>
			<feComposite in2="hardAlpha" operator="out" k2="-1" k3="1"/>
			<feColorMatrix type="matrix" values="0 0 0 0 0 0 0 0 0 0 0 0 0 0 0 0 0 0 0.2 0"/>
			<feBlend mode="normal" in2="BackgroundImageFix" result="effect_dropShadow_1"/>
			<feBlend mode="normal" in="SourceGraphic" in2="effect_dropShadow_1" result="shape"/>
		</filter>
		<linearGradient id="paint_linear_1_222_0" x1="105.192619" y1="7.114495" x2="102.933456" y2="136.245071" gradientUnits="userSpaceOnUse">
			<stop stop-color="#FFFFFF" stop-opacity="0.000000"/>
			<stop offset="1.000000" stop-color="#64B5F6" stop-opacity="0.600000"/>
		</linearGradient>
		<linearGradient id="paint_linear_1_223_0" x1="75.399406" y1="56.301544" x2="156.655548" y2="56.301544" gradientUnits="userSpaceOnUse">
			<stop stop-color="#EF9A9A"/>
			<stop offset="1.000000" stop-color="#D81B60"/>
		</linearGradient>
		<linearGradient id="paint_linear_1_224_0" x1="76.683533" y1="81.903488" x2="74.232460" y2="109.531082" gradientUnits="userSpaceOnUse">
			<stop stop-color="#7E57C2"/>
			<stop offset="1.000000" stop-color="#4527A0"/>
		</linearGradient>
		<linearGradient id="paint_linear_1_225_0" x1="6813.025391" y1="2526.452637" x2="6704.616211" y2="3098.985352" gradientUnits="userSpaceOnUse">
			<stop stop-color="#7E57C2"/>
			<stop offset="1.000000" stop-color="#4527A0"/>
		</linearGradient>
		<linearGradient id="paint_linear_1_226_0" x1="20341.191406" y1="14857.063477" x2="23233.746094" y2="23159.507812" gradientUnits="userSpaceOnUse">
			<stop stop-color="#7E57C2"/>
			<stop offset="1.000000" stop-color="#4527A0"/>
		</linearGradient>
		<linearGradient id="paint_linear_1_228_0" x1="13960.388672" y1="9769.548828" x2="16180.292969" y2="16784.751953" gradientUnits="userSpaceOnUse">
			<stop stop-color="#7E57C2"/>
			<stop offset="1.000000" stop-color="#4527A0"/>
		</linearGradient>
		<linearGradient id="paint_linear_1_229_0" x1="118.758736" y1="71.769821" x2="112.939445" y2="118.821121" gradientUnits="userSpaceOnUse">
			<stop offset="0.140000" stop-color="#7E57C2" stop-opacity="0.000000"/>
			<stop offset="0.260000" stop-color="#724DBB" stop-opacity="0.211765"/>
			<stop offset="0.480000" stop-color="#5F3DAF" stop-opacity="0.549020"/>
			<stop offset="0.660000" stop-color="#5131A7" stop-opacity="0.788235"/>
			<stop offset="0.810000" stop-color="#482AA2" stop-opacity="0.941176"/>
			<stop offset="0.910000" stop-color="#4527A0"/>
		</linearGradient>
		<linearGradient id="paint_linear_1_231_0" x1="27.453857" y1="96.770569" x2="91.145096" y2="96.770569" gradientUnits="userSpaceOnUse">
			<stop stop-color="#D2D4D5"/>
			<stop offset="1.000000" stop-color="#AAACAE"/>
		</linearGradient>
		<linearGradient id="paint_linear_1_232_0" x1="537.989258" y1="4197.731445" x2="6501.531250" y2="6273.710938" gradientUnits="userSpaceOnUse">
			<stop stop-color="#D2D4D5"/>
			<stop offset="1.000000" stop-color="#AAACAE"/>
		</linearGradient>
		<linearGradient id="paint_linear_1_233_0" x1="43.576744" y1="93.577873" x2="63.939178" y2="102.231369" gradientUnits="userSpaceOnUse">
			<stop stop-color="#FFF8E1"/>
			<stop offset="1.000000" stop-color="#FFCC80"/>
		</linearGradient>
		<linearGradient id="paint_linear_1_234_0" x1="7875.058105" y1="2940.748291" x2="8764.823242" y2="3170.148682" gradientUnits="userSpaceOnUse">
			<stop stop-color="#FFF8E1"/>
			<stop offset="1.000000" stop-color="#FFCC80"/>
		</linearGradient>
		<linearGradient id="paint_linear_1_235_0" x1="8044.467773" y1="3226.239258" x2="8524.844727" y2="4074.277832" gradientUnits="userSpaceOnUse">
			<stop stop-color="#FFF8E1"/>
			<stop offset="1.000000" stop-color="#FFCC80"/>
		</linearGradient>
	</defs>
	<rect id="2 20" width="156.000000" height="131.000000" transform="translate(15.000000 0.020874)" fill="#FFFFFF" fill-opacity="0"/>
	<path id="Vector" d="M171 65.5209C170.993 77.5582 167.645 89.3615 161.32 99.6371C154.996 109.913 145.941 118.264 135.147 123.777C134.661 124.029 134.172 124.272 133.679 124.504L133.577 124.555L133.226 124.721C132.935 124.863 132.65 124.994 132.354 125.126C130.51 125.964 128.617 126.717 126.678 127.384C125.577 127.764 124.464 128.116 123.34 128.439L121.995 128.808C107.027 132.76 91.1354 131.389 77.0811 124.934C76.5052 124.666 75.9294 124.393 75.3638 124.11L74.3446 123.605C64.2575 118.365 55.7007 110.639 49.498 101.171C48.8457 100.184 48.2241 99.1735 47.633 98.1395C47.1064 97.2404 46.5968 96.3293 46.1042 95.4066C41.3168 86.1604 38.8272 75.9139 38.8428 65.5209C38.8428 64.295 38.8768 63.0758 38.9448 61.8634C39.9001 44.8313 47.5204 28.8405 60.1848 17.2921C72.8493 5.7439 89.5587 -0.450806 106.759 0.0256348C123.96 0.502075 140.294 7.61206 152.288 19.8434C164.283 32.0747 170.99 48.4624 170.985 65.5209L171 65.5209Z" fill="url(#paint_linear_1_222_0)" fill-opacity="1.000000" fill-rule="nonzero"/>
	<path id="Vector" d="M91.9452 63.192C91.9452 63.192 77.1676 56.246 75.8835 46.6882C74.5994 37.1305 75.5013 27.9971 82.8646 25.4409C82.8646 25.4409 87.5221 10.7203 104.032 16.6357C120.542 22.5513 117.938 40.313 126.963 42.4397C135.987 44.5665 152.839 35.6099 156.054 46.5366C159.27 57.4634 148.696 56.7966 141.669 66.0715C134.642 75.3463 145.496 80.2162 143.509 86.6014C141.521 92.9868 134.015 97.3767 134.015 97.3767L91.9452 63.192Z" fill="url(#paint_linear_1_223_0)" fill-opacity="1.000000" fill-rule="nonzero"/>
	<path id="Vector" d="M71.7101 84.1565L75.8835 95.4066L76.337 95.4066L82.8646 66.0715C78.7422 69.6532 71.7101 84.1565 71.7101 84.1565Z" fill="url(#paint_linear_1_224_0)" fill-opacity="1.000000" fill-rule="nonzero"/>
	<path id="Vector" d="M64.3825 99.6752L61.7379 100.994C58.4562 102.944 53.5541 102.388 53.5541 102.388C56.2039 105.343 71.1241 108.687 75.3179 108.601L76.0924 98.1344L66.7979 98.1344L64.3825 99.6752Z" fill="url(#paint_linear_1_225_0)" fill-opacity="1.000000" fill-rule="nonzero"/>
	<path id="Vector" d="M133.679 124.489L133.577 124.54L133.225 124.706C132.935 124.848 132.65 124.979 132.354 125.11C130.509 125.949 128.617 126.702 126.677 127.368C125.577 127.749 124.464 128.101 123.34 128.424L121.995 128.793C107.027 132.745 91.1353 131.374 77.081 124.918C76.5052 124.651 75.9294 124.378 75.3637 124.095L74.3446 123.59C74.4873 119.255 74.7064 114.067 75.0274 108.596C75.2313 105.176 75.481 101.645 75.7765 98.1394C75.8529 97.2251 75.9345 96.3158 76.016 95.4065C77.2186 82.4843 79.1448 70.5017 82.2328 66.6927L82.2786 66.6422C82.6707 66.1073 83.2238 65.7095 83.8583 65.5056C88.317 64.455 91.4611 64.1013 91.9554 63.192C92.4496 62.2827 91.9554 60.4944 91.9554 60.4944L92.842 60.3732C94.1312 60.1812 96.6332 59.7771 99.0027 59.1709C99.0177 59.1755 99.0337 59.1755 99.0486 59.1709C101.143 58.6304 103.125 57.9332 104.093 57.0946L106.081 62.3333C106.081 62.3333 121.026 60.459 126.861 66.0917C126.897 66.1179 126.929 66.1484 126.958 66.1826C127.019 66.2377 127.077 66.2968 127.131 66.3594C127.478 66.7233 127.787 67.121 128.053 67.5465C129.954 70.5775 131.299 82.7419 132.232 95.9369C132.446 98.9679 132.639 102.1 132.808 105.166C133.195 112.249 133.485 119.109 133.679 124.489Z" fill="url(#paint_linear_1_226_0)" fill-opacity="1.000000" fill-rule="nonzero"/>
	<g opacity="0.150000">
		<path id="Vector" d="M133.577 124.555L133.226 124.721C132.935 124.863 132.65 124.994 132.354 125.125C130.509 125.964 128.617 126.717 126.678 127.384C125.577 127.764 124.464 128.116 123.34 128.439C116.456 121.17 113.724 111.734 113.724 111.734L132.797 105.166L133.577 124.555Z" fill="#000000" fill-opacity="1.000000" fill-rule="nonzero"/>
	</g>
	<path id="Vector" d="M126.856 66.0715C133.76 72.7903 135.264 86.8945 133.99 97.392C132.716 107.889 130.351 117.72 125.439 117.417C120.527 117.114 103.528 105.424 96.9593 99.0488L100.796 91.7491L114.677 97.4829L114.677 82.2015L126.856 66.0715Z" fill="url(#paint_linear_1_228_0)" fill-opacity="1.000000" fill-rule="nonzero"/>
	<path id="Vector" d="M126.856 66.0715C133.76 72.7903 135.264 86.8945 133.99 97.392C132.716 107.889 130.351 117.72 125.439 117.417C120.527 117.114 103.528 105.424 96.9593 99.0488L100.796 91.7491L114.677 97.4829L114.677 82.2015L126.856 66.0715Z" fill="url(#paint_linear_1_229_0)" fill-opacity="1.000000" fill-rule="nonzero"/>
	<g filter="url(#filter_1_230_dd)">
		<path id="Vector" d="M27.4539 95.4066L91.1451 95.4066L91.1451 98.1395L27.4539 98.1395L27.4539 95.4066Z" fill="url(#paint_linear_1_231_0)" fill-opacity="1.000000" fill-rule="evenodd"/>
		<path id="Vector" d="M63.4347 61.8634L15 61.8634L27.4539 95.4065L75.8835 95.4065L63.4347 61.8634Z" fill="url(#paint_linear_1_232_0)" fill-opacity="1.000000" fill-rule="nonzero"/>
	</g>
	<path id="Vector" d="M41.9971 98.1395C41.9971 98.1395 50.354 102.287 55.6638 102.388C60.9735 102.489 66.803 98.1395 66.803 98.1395L41.9971 98.1395Z" fill="url(#paint_linear_1_233_0)" fill-opacity="1.000000" fill-rule="nonzero"/>
	<path id="Vector" d="M100.796 91.7491C100.796 91.7491 93.4484 88.0715 90.284 87.6674C87.1196 87.2633 77.295 95.4065 77.295 95.4065L91.1554 95.4065L96.9747 99.0488L100.796 91.7491Z" fill="url(#paint_linear_1_234_0)" fill-opacity="1.000000" fill-rule="nonzero"/>
	<path id="Vector" d="M103.472 48.8099C103.508 51.576 103.712 54.3376 104.083 57.0795C100.796 58.9132 96.9492 59.8983 92.8318 60.3783L92.5923 57.0795L92.4497 55.0588L92.4497 54.9932C91.656 54.9755 90.8735 54.8038 90.1464 54.488C85.173 52.3612 84.1029 41.9648 84.1029 41.9648C86.0953 41.884 88.689 38.3226 88.689 38.3226C90.1413 40.5251 96.8779 44.7787 100.786 43.637C104.695 42.4954 104.389 39.7623 104.389 39.7623C105.096 40.0579 105.707 40.5402 106.157 41.1566C106.606 41.7731 106.876 42.5 106.937 43.2582C107.146 45.9254 103.472 48.8099 103.472 48.8099Z" fill="url(#paint_linear_1_235_0)" fill-opacity="1.000000" fill-rule="nonzero"/>
	<g opacity="0.150000">
		<path id="Vector" d="M100.134 51.745C99.2117 53.2908 95.0383 55.751 92.5974 57.0897L92.4548 55.069C92.6076 55.069 92.7554 55.0184 92.8981 54.9882C94.8908 54.6385 96.8035 53.9352 98.5441 52.912C98.5649 52.9038 98.584 52.8918 98.6002 52.8766C99.1233 52.5699 99.6133 52.2112 100.063 51.8057L100.134 51.745Z" fill="#000000" fill-opacity="1.000000" fill-rule="nonzero"/>
	</g>
	<g opacity="0.150000">
		<path id="Vector" d="M108.95 95.1237L119.763 99.5084L114.667 95.8662L114.667 82.2267C114.667 82.2267 113.072 94.0779 108.95 95.1237Z" fill="#000000" fill-opacity="1.000000" fill-rule="nonzero"/>
	</g>
</svg>
