<svg width="687.245056" height="622.557434" viewBox="0 0 687.245 622.557" fill="none" xmlns="http://www.w3.org/2000/svg" xmlns:xlink="http://www.w3.org/1999/xlink">
	<desc>
			Created with Pixso.
	</desc>
	<defs>
		<filter id="filter_1_51_dd" x="402.622559" y="83.243561" width="188.000000" height="188.000000" filterUnits="userSpaceOnUse" color-interpolation-filters="sRGB">
			<feFlood flood-opacity="0" result="BackgroundImageFix"/>
			<feColorMatrix in="SourceAlpha" type="matrix" values="0 0 0 0 0 0 0 0 0 0 0 0 0 0 0 0 0 0 127 0" result="hardAlpha"/>
			<feOffset dx="0" dy="0"/>
			<feGaussianBlur stdDeviation="16.6667"/>
			<feComposite in2="hardAlpha" operator="out" k2="-1" k3="1"/>
			<feColorMatrix type="matrix" values="0 0 0 0 0.062745 0 0 0 0 0.43922 0 0 0 0 0.69412 0 0 0 0.25 0"/>
			<feBlend mode="normal" in2="BackgroundImageFix" result="effect_dropShadow_1"/>
			<feBlend mode="normal" in="SourceGraphic" in2="effect_dropShadow_1" result="shape"/>
		</filter>
		<clipPath id="clip1_52">
			<rect id="ic_home_48px" width="48.000000" height="48.000000" transform="translate(472.622559 153.243561)" fill="white" fill-opacity="0"/>
		</clipPath>
		<filter id="filter_1_57_dd" x="395.760742" y="0.000000" width="71.138184" height="60.644073" filterUnits="userSpaceOnUse" color-interpolation-filters="sRGB">
			<feFlood flood-opacity="0" result="BackgroundImageFix"/>
			<feColorMatrix in="SourceAlpha" type="matrix" values="0 0 0 0 0 0 0 0 0 0 0 0 0 0 0 0 0 0 127 0" result="hardAlpha"/>
			<feOffset dx="5" dy="5"/>
			<feGaussianBlur stdDeviation="5"/>
			<feComposite in2="hardAlpha" operator="out" k2="-1" k3="1"/>
			<feColorMatrix type="matrix" values="0 0 0 0 0 0 0 0 0 0 0 0 0 0 0 0 0 0 0.15 0"/>
			<feBlend mode="normal" in2="BackgroundImageFix" result="effect_dropShadow_1"/>
			<feBlend mode="normal" in="SourceGraphic" in2="effect_dropShadow_1" result="shape"/>
		</filter>
		<clipPath id="clip1_58">
			<rect id="ic_ac_unit_24px" width="24.000000" height="18.001167" transform="translate(414.622559 16.000397)" fill="white" fill-opacity="0"/>
		</clipPath>
		<filter id="filter_1_62_dd" x="569.622559" y="77.254990" width="71.138184" height="60.644089" filterUnits="userSpaceOnUse" color-interpolation-filters="sRGB">
			<feFlood flood-opacity="0" result="BackgroundImageFix"/>
			<feColorMatrix in="SourceAlpha" type="matrix" values="0 0 0 0 0 0 0 0 0 0 0 0 0 0 0 0 0 0 127 0" result="hardAlpha"/>
			<feOffset dx="5" dy="5"/>
			<feGaussianBlur stdDeviation="5"/>
			<feComposite in2="hardAlpha" operator="out" k2="-1" k3="1"/>
			<feColorMatrix type="matrix" values="0 0 0 0 0 0 0 0 0 0 0 0 0 0 0 0 0 0 0.15 0"/>
			<feBlend mode="normal" in2="BackgroundImageFix" result="effect_dropShadow_1"/>
			<feBlend mode="normal" in="SourceGraphic" in2="effect_dropShadow_1" result="shape"/>
		</filter>
		<filter id="filter_1_65_dd" x="349.622559" y="77.254990" width="71.138184" height="60.644073" filterUnits="userSpaceOnUse" color-interpolation-filters="sRGB">
			<feFlood flood-opacity="0" result="BackgroundImageFix"/>
			<feColorMatrix in="SourceAlpha" type="matrix" values="0 0 0 0 0 0 0 0 0 0 0 0 0 0 0 0 0 0 127 0" result="hardAlpha"/>
			<feOffset dx="5" dy="5"/>
			<feGaussianBlur stdDeviation="5"/>
			<feComposite in2="hardAlpha" operator="out" k2="-1" k3="1"/>
			<feColorMatrix type="matrix" values="0 0 0 0 0 0 0 0 0 0 0 0 0 0 0 0 0 0 0.15 0"/>
			<feBlend mode="normal" in2="BackgroundImageFix" result="effect_dropShadow_1"/>
			<feBlend mode="normal" in="SourceGraphic" in2="effect_dropShadow_1" result="shape"/>
		</filter>
		<clipPath id="clip1_66">
			<rect id="ic_lock_24px" width="24.000000" height="18.001160" transform="translate(368.622559 93.255386)" fill="white" fill-opacity="0"/>
		</clipPath>
		<filter id="filter_1_70_dd" x="523.622559" y="0.000000" width="71.138184" height="60.644073" filterUnits="userSpaceOnUse" color-interpolation-filters="sRGB">
			<feFlood flood-opacity="0" result="BackgroundImageFix"/>
			<feColorMatrix in="SourceAlpha" type="matrix" values="0 0 0 0 0 0 0 0 0 0 0 0 0 0 0 0 0 0 127 0" result="hardAlpha"/>
			<feOffset dx="5" dy="5"/>
			<feGaussianBlur stdDeviation="5"/>
			<feComposite in2="hardAlpha" operator="out" k2="-1" k3="1"/>
			<feColorMatrix type="matrix" values="0 0 0 0 0 0 0 0 0 0 0 0 0 0 0 0 0 0 0.15 0"/>
			<feBlend mode="normal" in2="BackgroundImageFix" result="effect_dropShadow_1"/>
			<feBlend mode="normal" in="SourceGraphic" in2="effect_dropShadow_1" result="shape"/>
		</filter>
		<clipPath id="clip1_71">
			<rect id="Frame" width="28.000000" height="21.001358" transform="translate(540.622559 14.500275)" fill="white" fill-opacity="0"/>
		</clipPath>
		<filter id="filter_1_111_dd" x="173.622559" y="282.243561" width="101.000000" height="70.000000" filterUnits="userSpaceOnUse" color-interpolation-filters="sRGB">
			<feFlood flood-opacity="0" result="BackgroundImageFix"/>
			<feColorMatrix in="SourceAlpha" type="matrix" values="0 0 0 0 0 0 0 0 0 0 0 0 0 0 0 0 0 0 127 0" result="hardAlpha"/>
			<feOffset dx="5" dy="5"/>
			<feGaussianBlur stdDeviation="3.33333"/>
			<feComposite in2="hardAlpha" operator="out" k2="-1" k3="1"/>
			<feColorMatrix type="matrix" values="0 0 0 0 0.062745 0 0 0 0 0.43922 0 0 0 0 0.69412 0 0 0 0.2 0"/>
			<feBlend mode="normal" in2="BackgroundImageFix" result="effect_dropShadow_1"/>
			<feBlend mode="normal" in="SourceGraphic" in2="effect_dropShadow_1" result="shape"/>
		</filter>
		<clipPath id="clip1_116">
			<rect id="ic_play_arrow_48px" width="48.000000" height="48.000000" transform="translate(295.622559 294.243561)" fill="white" fill-opacity="0"/>
		</clipPath>
		<filter id="filter_1_121_dd" x="270.622559" y="363.243561" width="174.000000" height="83.000000" filterUnits="userSpaceOnUse" color-interpolation-filters="sRGB">
			<feFlood flood-opacity="0" result="BackgroundImageFix"/>
			<feColorMatrix in="SourceAlpha" type="matrix" values="0 0 0 0 0 0 0 0 0 0 0 0 0 0 0 0 0 0 127 0" result="hardAlpha"/>
			<feOffset dx="0" dy="4"/>
			<feGaussianBlur stdDeviation="3.33333"/>
			<feComposite in2="hardAlpha" operator="out" k2="-1" k3="1"/>
			<feColorMatrix type="matrix" values="0 0 0 0 0.43529 0 0 0 0 0.81176 0 0 0 0 0.59216 0 0 0 0.2 0"/>
			<feBlend mode="normal" in2="BackgroundImageFix" result="effect_dropShadow_1"/>
			<feBlend mode="normal" in="SourceGraphic" in2="effect_dropShadow_1" result="shape"/>
		</filter>
		<linearGradient id="paint_linear_1_37_0" x1="375.238007" y1="-63.075226" x2="236.862549" y2="602.080811" gradientUnits="userSpaceOnUse">
			<stop stop-color="#D1ECFF"/>
			<stop offset="1.000000" stop-color="#1070B1"/>
		</linearGradient>
		<linearGradient id="paint_linear_1_75_0" x1="559.357788" y1="223.819122" x2="504.054413" y2="252.230835" gradientUnits="userSpaceOnUse">
			<stop stop-color="#FFF8E1"/>
			<stop offset="1.000000" stop-color="#FFCC80"/>
		</linearGradient>
		<linearGradient id="paint_linear_1_76_0" x1="585.600098" y1="240.484070" x2="585.600098" y2="317.743561" gradientUnits="userSpaceOnUse">
			<stop stop-color="#AF6CED"/>
			<stop offset="1.000000" stop-color="#5E199D"/>
		</linearGradient>
		<linearGradient id="paint_linear_1_77_0" x1="633.350098" y1="300.743561" x2="633.350098" y2="410.743561" gradientUnits="userSpaceOnUse">
			<stop stop-color="#EB5757"/>
			<stop offset="1.000000" stop-color="#872727"/>
		</linearGradient>
		<linearGradient id="paint_linear_1_78_0" x1="575.338745" y1="230.389725" x2="559.379028" y2="243.145996" gradientUnits="userSpaceOnUse">
			<stop stop-color="#FFF8E1"/>
			<stop offset="1.000000" stop-color="#FFCC80"/>
		</linearGradient>
		<linearGradient id="paint_linear_1_80_0" x1="587.898560" y1="290.323273" x2="550.127075" y2="297.281250" gradientUnits="userSpaceOnUse">
			<stop stop-color="#FFF8E1"/>
			<stop offset="1.000000" stop-color="#FFCC80"/>
		</linearGradient>
		<linearGradient id="paint_linear_1_96_0" x1="193.015610" y1="330.398590" x2="498.515656" y2="363.898651" gradientUnits="userSpaceOnUse">
			<stop offset="0.127122" stop-color="#FFFFFF"/>
			<stop offset="0.972261" stop-color="#FFFFFF" stop-opacity="0.800000"/>
		</linearGradient>
	</defs>
	<g opacity="0.400000">
		<path id="Vector" d="M315.762 225.15C415.592 194.153 479.455 5.76105 624.23 74.6537C751.174 135.061 665.518 377.572 466.635 480.706C307.895 563.023 154.318 590.423 67.8971 514.294C7.6338 461.207 -33.683 335.038 60.4517 262.918C119.839 217.419 216.017 270.497 315.762 225.15Z" fill="#98C3E8" fill-opacity="1.000000" fill-rule="evenodd"/>
	</g>
	<g opacity="0.200000">
		<path id="Ellipse" d="M143.123 149.744C148.123 162.244 133.123 181.744 111.623 188.244C93.1227 193.837 75.1227 193.244 70.1227 180.244C65.6996 168.744 79.6227 156.244 95.6227 149.744C111.623 143.244 138.123 137.244 143.123 149.744Z" fill="#98C3E8" fill-opacity="1.000000" fill-rule="nonzero"/>
	</g>
	<g opacity="0.200000">
		<path id="Ellipse" d="M306.623 124.244C302.732 114.304 316.439 91.1094 333.425 86.0421C348.042 81.6819 361.734 71.4072 365.623 81.7436C369.063 90.8872 358.531 111.568 345.883 116.659C333.235 121.749 310.514 134.183 306.623 124.244Z" fill="#98C3E8" fill-opacity="1.000000" fill-rule="nonzero"/>
	</g>
	<g opacity="0.200000">
		<path id="Ellipse" d="M295.415 616.459C291.524 606.519 303.438 591.109 320.425 586.042C335.041 581.682 349.237 582.228 353.126 592.564C356.566 601.708 345.531 611.568 332.883 616.659C320.235 621.749 299.306 626.398 295.415 616.459Z" fill="#98C3E8" fill-opacity="1.000000" fill-rule="nonzero"/>
	</g>
	<g opacity="0.200000">
		<path id="Ellipse" d="M471.195 565.793C463.101 546.763 488.901 504.478 524.195 494.793C554.565 486.46 603.605 503.504 611.695 523.293C618.852 540.799 571.975 537.903 545.697 547.636C519.418 557.369 479.29 584.823 471.195 565.793Z" fill="#98C3E8" fill-opacity="1.000000" fill-rule="nonzero"/>
	</g>
	<mask id="mask1_36" mask-type="alpha" maskUnits="userSpaceOnUse" x="20.548340" y="63.413864" width="646.148499" height="489.659424">
		<path id="Vector" d="M314.764 229.267C409.665 196.723 466.012 14.1125 606.584 76.1879C729.842 130.618 654.003 365.783 466.012 470.337C315.965 553.788 169.446 584.383 84.6288 513.729C25.4834 464.461 -17.3899 344.516 70.9866 272.66C126.741 227.328 220.316 275.583 314.764 229.267Z" fill="#98C3E8" fill-opacity="1.000000" fill-rule="evenodd"/>
	</mask>
	<g mask="url(#mask1_36)">
		<rect id="Rectangle" x="-85.460388" y="-17.354706" width="805.161560" height="681.484741" fill="url(#paint_linear_1_37_0)" fill-opacity="1.000000"/>
	</g>
	<g mask="url(#mask1_36)">
		<path id="Vector 2" d="M16.1313 199.711C89.9588 236.94 172.62 341.148 172.62 390.905C172.62 452.113 42.8438 545.922 -16.6809 599.137L491.278 631.949C473.189 550.97 427.517 370.943 455.31 330.96C491.278 279.217 636.829 291.837 718.439 301.302L740.524 70.9859C700.771 87.6024 611.799 135.348 563.212 122.728C518.238 111.047 431.963 60.6795 395.365 28.7086" stroke="#FFFFFF" stroke-opacity="0.200000" stroke-width="15.000000"/>
	</g>
	<g mask="url(#mask1_36)">
		<path id="Vector 2" d="M206.064 142.92C226.256 248.088 281.153 440.881 339.206 370.713C411.771 283.003 469.192 169.423 523.459 244.512C566.872 304.584 630.729 423.086 657.232 474.829" stroke="#FFFFFF" stroke-opacity="0.200000" stroke-width="15.000000"/>
	</g>
	<g mask="url(#mask1_36)">
		<path id="Union" d="M417.623 204.244C417.623 199.825 421.204 196.244 425.623 196.244C430.041 196.244 433.623 199.825 433.623 204.244C433.623 208.662 430.041 212.244 425.623 212.244C421.204 212.244 417.623 208.662 417.623 204.244ZM550.623 345.244C546.204 345.244 542.623 348.825 542.623 353.244C542.623 357.662 546.204 361.244 550.623 361.244C555.041 361.244 558.623 357.662 558.623 353.244C558.623 348.825 555.041 345.244 550.623 345.244ZM102.623 361.244C98.2043 361.244 94.6226 364.825 94.6226 369.244C94.6226 373.662 98.2043 377.244 102.623 377.244C107.041 377.244 110.623 373.662 110.623 369.244C110.623 364.825 107.041 361.244 102.623 361.244ZM276.623 463.244C272.204 463.244 268.623 466.825 268.623 471.244C268.623 475.662 272.204 479.244 276.623 479.244C281.041 479.244 284.623 475.662 284.623 471.244C284.623 466.825 281.041 463.244 276.623 463.244Z" clip-rule="evenodd" fill="#FFFFFF" fill-opacity="0.600000" fill-rule="evenodd"/>
	</g>
	<g mask="url(#mask1_36)">
		<circle id="Ellipse" cx="72.622559" cy="456.243561" r="18.000000" stroke="#FFFFFF" stroke-opacity="0.400000" stroke-width="8.000000"/>
		<circle id="Ellipse" cx="652.622559" cy="179.243561" r="18.000000" stroke="#FFFFFF" stroke-opacity="0.400000" stroke-width="8.000000"/>
		<circle id="Ellipse" cx="402.622559" cy="412.243561" r="18.000000" stroke="#FFFFFF" stroke-opacity="0.400000" stroke-width="8.000000"/>
	</g>
	<g filter="url(#filter_1_51_dd)">
		<rect id="Rectangle" x="452.622559" y="133.243561" rx="10.000000" width="88.000000" height="88.000000" fill="#FFFFFF" fill-opacity="1.000000"/>
	</g>
	<rect id="ic_home_48px" width="48.000000" height="48.000000" transform="translate(472.622559 153.243561)" fill="#FFFFFF" fill-opacity="0"/>
	<g clip-path="url(#clip1_52)">
		<path id="Vector" d="M492.623 193.244L492.623 181.244L500.623 181.244L500.623 193.244L510.623 193.244L510.623 177.244L516.623 177.244L496.623 159.244L476.623 177.244L482.623 177.244L482.623 193.244L492.623 193.244Z" fill="#5A98D0" fill-opacity="1.000000" fill-rule="nonzero"/>
	</g>
	<g filter="url(#filter_1_57_dd)">
		<path id="Vector" d="M412.615 10L440.045 10C443.83 10 446.899 12.2858 446.899 15.1054L446.899 35.5386C446.899 38.3583 443.83 40.6441 440.045 40.6441L412.615 40.6441C408.829 40.6441 405.761 38.3583 405.761 35.5386L405.761 15.1054C405.761 12.2858 408.829 10 412.615 10Z" fill="#56CCF2" fill-opacity="1.000000" fill-rule="evenodd"/>
	</g>
	<rect id="ic_ac_unit_24px" width="24.000000" height="18.001167" transform="translate(414.622559 16.000397)" fill="#FFFFFF" fill-opacity="0"/>
	<g clip-path="url(#clip1_58)">
		<path id="Vector" d="M436.623 24.2509L432.453 24.2509L435.693 21.8208L434.283 20.7557L429.623 24.2509L427.623 24.2509L427.623 22.7508L432.283 19.2556L430.863 18.198L427.623 20.6282L427.623 17.5005L425.623 17.5005L425.623 20.6282L422.383 18.198L420.963 19.2556L425.623 22.7508L425.623 24.2509L423.623 24.2509L418.963 20.7557L417.553 21.8208L420.793 24.2509L416.623 24.2509L416.623 25.751L420.793 25.751L417.553 28.1812L418.963 29.2462L423.623 25.751L425.623 25.751L425.623 27.2511L420.963 30.7463L422.383 31.8039L425.623 29.3737L425.623 32.5015L427.623 32.5015L427.623 29.3737L430.863 31.8039L432.283 30.7463L427.623 27.2511L427.623 25.751L429.623 25.751L434.283 29.2462L435.693 28.1812L432.453 25.751L436.623 25.751L436.623 24.2509Z" fill="#FFFFFF" fill-opacity="1.000000" fill-rule="nonzero"/>
	</g>
	<g filter="url(#filter_1_62_dd)">
		<path id="Vector" d="M586.476 87.255L613.907 87.255C617.692 87.255 620.761 89.5408 620.761 92.3604L620.761 112.794C620.761 115.613 617.692 117.899 613.907 117.899L586.476 117.899C582.691 117.899 579.623 115.613 579.623 112.794L579.623 92.3604C579.623 89.5408 582.691 87.255 586.476 87.255Z" fill="#F2C94C" fill-opacity="1.000000" fill-rule="evenodd"/>
	</g>
	<path id="Vector" d="M609.623 100.006C609.623 96.2556 605.623 93.2554 600.623 93.2554C595.623 93.2554 591.623 96.2556 591.623 100.006C591.623 102.331 593.223 104.431 595.623 105.631L595.623 107.506C595.623 108.481 596.423 109.306 597.623 109.606L597.623 109.756C597.623 111.032 598.923 112.007 600.623 112.007C602.323 112.007 603.623 111.032 603.623 109.756L603.623 109.606C604.823 109.306 605.623 108.481 605.623 107.506L605.623 105.631C608.023 104.431 609.623 102.331 609.623 100.006ZM593.623 100.006C593.623 97.0806 596.723 94.7555 600.623 94.7555C604.523 94.7555 607.623 97.0806 607.623 100.006C607.623 102.631 605.023 104.806 601.623 105.181L601.623 103.306L603.323 102.031C603.723 101.731 603.723 101.281 603.323 100.981C602.923 100.681 602.323 100.681 601.923 100.981L600.623 101.956L599.323 100.981C598.923 100.681 598.323 100.681 597.923 100.981C597.523 101.281 597.523 101.731 597.923 102.031L599.623 103.306L599.623 105.181C596.223 104.806 593.623 102.631 593.623 100.006ZM600.623 110.507C600.023 110.507 599.623 110.206 599.623 109.756L601.623 109.756C601.623 110.206 601.223 110.507 600.623 110.507ZM603.623 107.506C603.623 107.956 603.223 108.256 602.623 108.256L598.623 108.256C598.023 108.256 597.623 107.956 597.623 107.506L597.623 106.381C598.523 106.606 599.523 106.756 600.623 106.756C601.723 106.756 602.723 106.606 603.623 106.381L603.623 107.506Z" fill="#FFFFFF" fill-opacity="1.000000" fill-rule="nonzero"/>
	<g filter="url(#filter_1_65_dd)">
		<path id="Vector" d="M366.476 87.255L393.907 87.255C397.692 87.255 400.761 89.5408 400.761 92.3604L400.761 112.794C400.761 115.613 397.692 117.899 393.907 117.899L366.476 117.899C362.691 117.899 359.623 115.613 359.623 112.794L359.623 92.3604C359.623 89.5408 362.691 87.255 366.476 87.255Z" fill="#F58A8A" fill-opacity="1.000000" fill-rule="evenodd"/>
	</g>
	<rect id="ic_lock_24px" width="24.000000" height="18.001160" transform="translate(368.622559 93.255386)" fill="#FFFFFF" fill-opacity="0"/>
	<g clip-path="url(#clip1_66)">
		<path id="Vector" d="M386.623 99.2558L385.623 99.2558L385.623 97.7557C385.623 95.6855 383.383 94.0054 380.623 94.0054C377.863 94.0054 375.623 95.6855 375.623 97.7557L375.623 99.2558L374.623 99.2558C373.523 99.2558 372.623 99.9308 372.623 100.756L372.623 108.256C372.623 109.081 373.523 109.756 374.623 109.756L386.623 109.756C387.723 109.756 388.623 109.081 388.623 108.256L388.623 100.756C388.623 99.9308 387.723 99.2558 386.623 99.2558ZM380.623 106.006C379.523 106.006 378.623 105.331 378.623 104.506C378.623 103.681 379.523 103.006 380.623 103.006C381.723 103.006 382.623 103.681 382.623 104.506C382.623 105.331 381.723 106.006 380.623 106.006ZM383.723 99.2558L377.523 99.2558L377.523 97.7557C377.523 96.4731 378.913 95.4305 380.623 95.4305C382.333 95.4305 383.723 96.4731 383.723 97.7557L383.723 99.2558Z" fill="#FFFFFF" fill-opacity="1.000000" fill-rule="nonzero"/>
	</g>
	<g filter="url(#filter_1_70_dd)">
		<path id="Vector" d="M540.476 10L567.907 10C571.692 10 574.761 12.2858 574.761 15.1054L574.761 35.5386C574.761 38.3583 571.692 40.6441 567.907 40.6441L540.476 40.6441C536.691 40.6441 533.623 38.3583 533.623 35.5386L533.623 15.1054C533.623 12.2858 536.691 10 540.476 10Z" fill="#6FCF97" fill-opacity="1.000000" fill-rule="evenodd"/>
	</g>
	<rect id="Frame" width="28.000000" height="21.001358" transform="translate(540.622559 14.500275)" fill="#FFFFFF" fill-opacity="0"/>
	<g clip-path="url(#clip1_71)">
		<path id="Vector" d="M543.602 21.1731L559.934 21.1731L559.934 28.8287L543.602 28.8287L543.602 21.1731Z" fill="#FFFFFF" fill-opacity="1.000000" fill-rule="evenodd"/>
		<path id="Vector" d="M564.335 22.6965L560.731 23.8329L560.731 26.2012L564.335 27.3376L565.643 27.3376L565.643 22.6965L564.335 22.6965Z" fill="#FFFFFF" fill-opacity="1.000000" fill-rule="nonzero"/>
	</g>
	<path id="Vector" d="M501.6 223.744C500.41 223.124 498.897 220.608 500.013 216.244C500.775 213.263 503.6 211.244 503.6 211.244C503.6 211.244 505.966 217.783 510.331 220.958C512.315 220.958 516.283 220.958 516.283 220.958L513.108 226.513C513.108 226.513 529.603 244.362 533.346 245.164C538.902 246.355 551.6 249.132 551.6 249.132L546.045 260.244C546.045 260.244 533.346 259.022 527.791 256.672C523.029 254.658 506.6 226.513 506.6 226.513C506.6 226.513 503.962 224.974 501.6 223.744Z" fill="url(#paint_linear_1_75_0)" fill-opacity="1.000000" fill-rule="evenodd"/>
	<path id="Vector 2" d="M546.1 260.244C551.6 261.577 563.1 264.744 565.1 266.744C567.6 269.244 566.1 281.744 568.1 285.744C570.1 289.744 582.6 289.744 586.6 301.244C589.8 310.444 592.267 316.077 593.1 317.744C607.217 314.812 614.354 311.486 625.1 301.244C618.267 285.577 602.3 252.344 593.1 244.744C581.6 235.244 578.1 244.244 568.1 246.744C560.1 248.744 553.767 249.244 551.6 249.244L546.1 260.244Z" fill="url(#paint_linear_1_76_0)" fill-opacity="1.000000" fill-rule="evenodd"/>
	<path id="Vector 3" d="M596.1 316.744C597.433 334.244 597.5 372.244 601.1 380.244C604.7 388.244 634.6 403.91 649.1 410.744L652.1 402.244C643.6 393.744 622.1 376.844 620.1 371.244C618.1 365.644 622.267 347.91 623.1 338.244C624.433 347.41 627.2 364.444 635.6 371.244C644 378.044 660.1 389.91 665.6 395.744L670.6 386.244C665.6 378.41 656.1 366.744 652.1 361.244C647.621 355.084 640.1 345.744 641.1 327.244C642.1 308.744 625.1 300.744 625.1 300.744C614.734 311.259 608.294 314.347 596.1 316.744Z" fill="url(#paint_linear_1_77_0)" fill-opacity="1.000000" fill-rule="evenodd"/>
	<path id="Vector 4" d="M559.6 224.744C558.933 226.41 559.5 231.144 559.1 232.744C558.7 234.344 558.6 236.91 558.1 237.744L560.6 237.244L562.1 243.744C563.6 243.91 565 244.044 568.6 241.244C569.1 242.244 569.6 244.244 568.6 246.744C570.432 246.183 571.441 245.821 573.1 244.744L569.6 235.244C571.1 233.744 571.6 231.744 571.1 230.744C570.534 229.612 569.1 230.077 568.1 230.244C567.1 228.91 564.4 225.544 559.6 224.744Z" fill="url(#paint_linear_1_78_0)" fill-opacity="1.000000" fill-rule="evenodd"/>
	<path id="Vector 5" d="M559.1 224.744C561.267 225.41 566.1 227.444 568.1 230.244C568.933 229.91 570.7 229.544 571.1 230.744C571.5 231.944 570.267 234.244 569.6 235.244C571.1 239.577 574.4 248.544 575.6 249.744C577.1 251.244 584.1 250.244 587.1 251.744C590.1 253.244 592.6 255.244 594.1 260.744C595.6 266.244 594.1 266.244 602.6 266.244C611.1 266.244 619.1 269.244 619.6 263.244C620.1 257.244 625.6 251.744 619.6 247.744C613.6 243.744 614.1 240.244 615.1 237.244C616.1 234.244 613.6 230.744 608.1 230.744C602.6 230.744 603.1 235.744 594.1 231.744C585.1 227.744 584.1 221.244 582.1 219.244C580.1 217.244 576.1 209.244 566.6 212.244C557.1 215.244 555.1 221.744 559.1 224.744Z" fill="#F2994A" fill-opacity="1.000000" fill-rule="evenodd"/>
	<path id="Vector 6" d="M573.1 289.244L549.1 290.744L547.1 287.244L547.1 294.744L549.1 294.744C557.6 296.244 575.2 299.244 577.6 299.244C580 299.244 581.933 296.244 582.6 294.744C580.6 293.077 575.9 289.644 573.1 289.244Z" fill="url(#paint_linear_1_80_0)" fill-opacity="1.000000" fill-rule="evenodd"/>
	<path id="Vector 7" d="M547.1 281.244L547.1 298.244L538.6 298.244L538.6 281.244L547.1 281.244Z" fill="#F2C94C" fill-opacity="1.000000" fill-rule="evenodd"/>
	<path id="Vector 8" d="M677.6 413.744C676.4 411.744 669.1 402.077 665.6 395.744L670.6 386.244C672.933 388.244 673.1 388.244 675.6 391.744C676.763 393.371 679.1 416.244 677.6 413.744ZM665.6 424.744C663.2 424.344 653.433 415.077 649.1 410.744L652.1 402.244C654.1 403.077 658.3 404.544 659.1 405.744C660.1 407.244 668.6 425.244 665.6 424.744Z" fill="#5A98D0" fill-opacity="1.000000" fill-rule="evenodd"/>
	<g opacity="0.200000">
		<path id="Vector 9" d="M623.1 338.744L626.1 323.744C627.6 334.077 625.6 348.244 631.6 367.244C626.6 357.744 623.6 344.244 623.1 338.744Z" fill="#000000" fill-opacity="1.000000" fill-rule="evenodd"/>
	</g>
	<path id="Vector 8" d="M155.123 501.244L159.623 508.744C159.289 513.91 158.223 524.044 156.623 523.244C155.023 522.444 149.956 509.577 147.623 503.244L155.123 501.244ZM195.623 548.244L194.123 543.244L202.123 541.744C205.956 543.744 213.323 548.144 212.123 549.744C211.723 550.544 200.956 549.077 195.623 548.244Z" fill="#D06262" fill-opacity="1.000000" fill-rule="evenodd"/>
	<path id="Vector 2" d="M128.951 456.237C123.621 450.702 118.779 440.268 117.024 435.743C122.151 433.263 133.547 427.595 138.107 424.766C142.667 421.936 151.315 415.517 155.069 412.661C157.259 414.636 163.632 419.506 171.603 423.191C192.075 432.857 203.767 445.338 207.808 456.515C211.04 465.457 197.797 478.692 190.273 484.238C185.914 476.83 183.291 473.834 178.123 466.777L179.88 458.582L169.555 455.515C171.081 457.55 176.083 464.254 183.88 474.784C197.95 492.369 202.823 522.416 203.5 535.241C200.875 535.817 194.412 536.88 189.559 536.523C188.986 530.293 181.181 516.454 173.729 504.203C172.212 506.017 170.111 508.185 168.887 508.298C162.692 506.457 160.773 498.332 160.588 494.5L165.27 490.578C164.628 489.554 164.028 488.592 163.478 487.707C155.815 475.357 135.613 463.156 128.951 456.237Z" fill="#1F3F68" fill-opacity="1.000000" fill-rule="evenodd"/>
	<path id="Vector" d="M108.285 433.534C103.202 421.951 104.198 421.859 101.388 418.603C98.5781 415.347 97.8911 407.878 96.6205 404.983C95.982 403.527 90.8336 397.16 86.7179 389.324C86.7179 389.324 86.5943 389.097 86.3853 388.683C84.0098 384.047 82.0402 378.939 81.5905 374.05C81.4871 372.926 81.4641 371.813 81.5351 370.72C81.8254 362.158 88.3388 356.635 88.3388 356.635C92.2205 352.497 95.8615 351.802 97.1226 351.913C100.158 353.977 104.664 357.044 106.257 356.898C107.85 356.751 110.123 353.744 111.623 352.244C115.543 352.659 118.059 352.343 120.392 352.05C122.585 351.775 124.615 351.52 127.496 351.913C128.48 352.047 129.689 352.35 131.081 352.706C131.174 352.73 131.268 352.754 131.362 352.778C140.408 355.096 156.842 359.307 170.123 335.744C171.662 336.104 175.133 337.473 177.623 337.244C169.123 362.244 161.623 370.025 154.623 372.475C149.25 374.355 145.018 374.879 141.674 374.845C141.061 378.107 140.245 383.468 138.886 388.935C141.68 394.05 144.634 398.749 146.954 400.855C148.917 402.637 150.962 404.158 152.73 405.474C155.443 407.493 157.505 409.027 157.62 410.273C157.66 410.709 157.462 411.109 156.97 411.482C142.435 422.694 112.351 442.801 108.285 433.534Z" fill="#FFFFFF" fill-opacity="1.000000" fill-rule="evenodd"/>
	<path id="Vector 2" d="M121.589 387.121C118.442 387.696 110.296 380.795 106.641 377.449C117.437 385.32 119.588 383.646 128.799 376.478C131.067 374.713 133.764 372.615 137.123 370.244C136.384 371.316 129.123 385.744 121.589 387.121ZM88.3677 391.683C95.2259 398.918 112.492 413.766 126.689 415.272C140.887 416.778 143.093 402.549 142.421 395.247L138.623 388.744C136.742 393.77 133.162 405.94 128.492 407.574C122.654 409.618 104.226 405.789 88.3677 391.683ZM156.684 441.133L170.099 455.967L179.88 458.582L179.296 463.155C181.541 460.27 184.419 453.344 177.968 448.716C171.517 444.087 161.091 441.732 156.684 441.133Z" fill="#000000" fill-opacity="0.200000" fill-rule="evenodd"/>
	<path id="Vector 3" d="M137.123 370.244C138.919 371.82 140.41 372.4 142.123 372.744L143.623 369.244L146.623 367.744L147.123 364.244L143.123 360.744L140.623 363.744L141.123 361.244C140.623 361.577 139.023 362.444 138.623 363.244C138.223 364.044 138.456 365.91 138.623 366.744L137.123 370.244Z" fill="#F2994A" fill-opacity="1.000000" fill-rule="evenodd"/>
	<path id="Vector 4" d="M177.623 337.244L178.623 332.244L178.623 326.744L180.623 323.244L178.623 323.244C176.789 324.077 173.023 326.244 172.623 328.244C172.223 330.244 170.623 334.244 170.123 335.744C171.789 336.41 176.023 337.644 177.623 337.244Z" fill="#F2994A" fill-opacity="1.000000" fill-rule="evenodd"/>
	<path id="Vector 6" d="M98.6225 348.244C97.6225 346.744 95.4225 343.344 94.6225 341.744C93.6225 339.744 89.6225 332.744 91.1225 329.744C92.6225 326.744 95.1226 323.744 101.123 323.744C107.123 323.744 116.123 317.244 119.123 319.744C121.523 321.744 115.789 328.244 112.623 331.244L112.123 328.744L103.623 329.244C101.456 329.577 97.3226 331.744 98.1226 337.744C96.9226 337.744 95.6226 338.41 95.1226 338.744C95.6225 339.577 97.0225 341.544 98.6225 342.744C100.223 343.944 99.2892 346.91 98.6225 348.244Z" fill="#316099" fill-opacity="1.000000" fill-rule="evenodd"/>
	<path id="Vector 5" d="M97.1226 352.244C99.9559 354.077 104.523 357.244 106.123 357.244C107.723 357.244 110.456 353.744 111.623 352.244L111.123 347.744C112.623 347.077 115.323 344.244 114.123 338.244C112.923 332.244 112.289 329.41 112.123 328.744C109.123 328.577 102.523 328.744 100.123 330.744C97.7226 332.744 97.7892 336.577 98.1226 338.244C97.1226 338.244 95.1226 338.444 95.1226 339.244C95.1226 340.244 98.1226 342.244 99.1226 342.744C100.123 343.244 99.1226 347.244 99.1226 348.244C99.1226 349.044 98.4559 351.577 97.1226 352.244Z" fill="#F2994A" fill-opacity="1.000000" fill-rule="evenodd"/>
	<path id="Vector 7" d="M159.623 508.744L165.623 506.744C162.944 503.666 162.043 501.911 161.123 498.744L155.123 501.244L159.623 508.744ZM202.123 541.744L201.623 535.744C198.091 536.69 195.994 536.857 192.123 536.744L194.123 543.244L202.123 541.744Z" fill="#98C3E8" fill-opacity="1.000000" fill-rule="evenodd"/>
	<g opacity="0.800000">
		<rect id="Rectangle" x="186.622559" y="261.243561" rx="5.000000" width="266.283844" height="189.301315" fill="url(#paint_linear_1_96_0)" fill-opacity="1.000000"/>
	</g>
	<path id="Rectangle" d="M191.623 261.244L263.605 261.244L263.605 450.545L191.623 450.545C188.861 450.545 186.623 448.306 186.623 445.545L186.623 266.244C186.623 263.482 188.861 261.244 191.623 261.244Z" fill="#FFFFFF" fill-opacity="1.000000" fill-rule="evenodd"/>
	<circle id="Ellipse" cx="198.622559" cy="273.243561" r="4.000000" fill="#FA9595" fill-opacity="1.000000"/>
	<circle id="Ellipse" cx="211.622559" cy="273.243561" r="4.000000" fill="#FDF397" fill-opacity="1.000000"/>
	<circle id="Ellipse" cx="223.622559" cy="273.243561" r="4.000000" fill="#C1FEBB" fill-opacity="1.000000"/>
	<g opacity="0.400000">
		<path id="Union" d="M195.623 367.244L253.623 367.244L253.623 374.244L195.623 374.244L195.623 367.244ZM195.623 381.244L253.623 381.244L253.623 388.244L195.623 388.244L195.623 381.244ZM234.623 397.244L195.623 397.244L195.623 404.244L234.623 404.244L234.623 397.244Z" clip-rule="evenodd" fill="#5A98D0" fill-opacity="1.000000" fill-rule="evenodd"/>
	</g>
	<g opacity="0.100000">
		<path id="Union" d="M372.623 286.244L430.623 286.244L430.623 293.244L372.623 293.244L372.623 286.244ZM372.623 300.244L430.623 300.244L430.623 307.244L372.623 307.244L372.623 300.244ZM411.623 316.244L372.623 316.244L372.623 323.244L411.623 323.244L411.623 316.244Z" clip-rule="evenodd" fill="#000000" fill-opacity="1.000000" fill-rule="evenodd"/>
	</g>
	<g filter="url(#filter_1_111_dd)">
		<rect id="Rectangle" x="178.622559" y="287.243561" rx="5.000000" width="81.000000" height="50.000000" fill="#56CCF2" fill-opacity="1.000000"/>
	</g>
	<path id="afrian" d="M210.226 307.862Q210.696 307.406 211.702 307.501L211.702 305.837Q209.975 305.727 209.055 306.535Q209.031 306.557 209.006 306.579Q208.904 306.675 208.813 306.78Q208.089 307.619 208.089 309.083L208.089 309.244L206.87 309.244L206.87 310.908L208.089 310.908L208.089 317.244L209.815 317.244L209.815 310.908L211.702 310.908L211.702 309.244L209.815 309.244L209.815 309.083Q209.815 308.261 210.226 307.862ZM221.021 307.979Q221.241 307.898 221.423 307.716Q221.605 307.534 221.686 307.314Q221.751 307.139 221.751 306.939Q221.751 306.726 221.679 306.54Q221.599 306.336 221.431 306.165Q221.278 306.009 221.092 305.927Q220.889 305.837 220.646 305.837Q220.403 305.837 220.199 305.927Q220.013 306.009 219.861 306.165Q219.698 306.332 219.619 306.532Q219.544 306.721 219.544 306.939Q219.544 307.139 219.609 307.314Q219.69 307.534 219.872 307.716Q220.059 307.903 220.284 307.984Q220.454 308.044 220.646 308.044Q220.845 308.044 221.021 307.979ZM204.693 309.244L202.966 309.244L202.966 310.38Q202.588 309.86 202.082 309.541Q201.283 309.037 200.166 309.037Q199.401 309.037 198.739 309.298Q197.975 309.6 197.349 310.251Q196.876 310.743 196.594 311.328Q196.181 312.186 196.181 313.244Q196.181 314.255 196.566 315.088Q196.851 315.707 197.349 316.228Q197.981 316.889 198.754 317.193Q199.409 317.451 200.166 317.451Q201.265 317.451 202.056 316.957Q202.578 316.632 202.966 316.091L202.966 317.244L204.693 317.244L204.693 309.244ZM232.373 309.244L230.646 309.244L230.646 310.38Q230.268 309.86 229.762 309.541Q228.963 309.037 227.846 309.037Q227.081 309.037 226.419 309.298Q225.655 309.6 225.029 310.251Q224.556 310.743 224.275 311.328Q223.861 312.186 223.861 313.244Q223.861 314.255 224.246 315.088Q224.531 315.707 225.029 316.228Q225.661 316.889 226.434 317.193Q227.089 317.451 227.846 317.451Q228.945 317.451 229.736 316.957Q230.258 316.632 230.646 316.091L230.646 317.244L232.373 317.244L232.373 309.244ZM241.057 309.461Q240.355 309.037 239.397 309.037Q238.281 309.037 237.559 309.57Q237.185 309.847 236.917 310.267L236.917 309.244L235.19 309.244L235.19 317.244L236.917 317.244L236.917 312.954Q236.917 311.787 237.476 311.22Q237.635 311.058 237.823 310.942Q238.298 310.65 238.952 310.65Q239.641 310.65 240.086 310.979Q240.179 311.048 240.261 311.13Q240.296 311.166 240.329 311.204Q240.741 311.677 240.741 312.509L240.741 317.244L242.472 317.244L242.472 312.333Q242.472 310.979 241.815 310.136Q241.726 310.021 241.624 309.915Q241.365 309.647 241.057 309.461ZM215.973 309.614Q215.507 309.975 215.237 310.587L215.237 309.244L213.51 309.244L213.51 317.244L215.237 317.244L215.237 313.212Q215.237 312.176 215.754 311.633Q215.853 311.529 215.971 311.443Q216.203 311.275 216.46 311.166Q217.021 310.927 217.702 310.97L217.702 309.099Q216.638 309.099 215.973 309.614ZM219.782 309.244L219.782 317.244L221.509 317.244L221.509 309.244L219.782 309.244ZM199.261 315.539Q198.917 315.365 198.63 315.076Q198.368 314.81 198.201 314.494Q197.912 313.945 197.912 313.244Q197.912 312.542 198.201 311.993Q198.368 311.677 198.63 311.412Q198.917 311.122 199.261 310.948Q199.782 310.685 200.435 310.685Q201.097 310.685 201.622 310.953Q201.962 311.126 202.244 311.412Q202.512 311.681 202.68 312.003Q202.966 312.548 202.966 313.244Q202.966 313.939 202.68 314.485Q202.512 314.806 202.244 315.076Q201.962 315.361 201.622 315.534Q201.097 315.802 200.435 315.802Q199.782 315.802 199.261 315.539ZM226.941 315.539Q226.597 315.365 226.31 315.076Q226.048 314.81 225.881 314.494Q225.592 313.945 225.592 313.244Q225.592 312.542 225.881 311.993Q226.048 311.677 226.31 311.412Q226.597 311.122 226.941 310.948Q227.462 310.685 228.115 310.685Q228.777 310.685 229.302 310.953Q229.642 311.126 229.924 311.412Q230.192 311.681 230.36 312.003Q230.646 312.548 230.646 313.244Q230.646 313.939 230.36 314.485Q230.192 314.806 229.924 315.076Q229.642 315.361 229.302 315.534Q228.777 315.802 228.115 315.802Q227.462 315.802 226.941 315.539Z" fill="#FFFFFF" fill-opacity="1.000000" fill-rule="evenodd"/>
	<rect id="Rectangle" x="280.622559" y="279.243561" rx="5.000000" width="79.000000" height="77.000000" fill="#EB5757" fill-opacity="1.000000"/>
	<rect id="ic_play_arrow_48px" width="48.000000" height="48.000000" transform="translate(295.622559 294.243561)" fill="#FFFFFF" fill-opacity="0"/>
	<g clip-path="url(#clip1_116)">
		<path id="Vector" d="M311.623 304.244L311.623 332.244L333.623 318.244L311.623 304.244Z" fill="#FFFFFF" fill-opacity="1.000000" fill-rule="nonzero"/>
	</g>
	<g filter="url(#filter_1_121_dd)">
		<rect id="Rectangle" x="280.622559" y="369.243561" rx="5.000000" width="154.000000" height="63.000000" fill="#6FCF97" fill-opacity="1.000000"/>
	</g>
	<path id="Vector 4.1" d="M294.123 414.244C303.623 407.744 307.623 399.244 325.623 399.244C343.623 399.244 345.202 409.244 356.123 409.244C369.123 409.244 381.623 389.744 395.623 389.744C409.623 389.744 413.123 399.744 420.623 400.244" stroke="#000000" stroke-opacity="0.100000" stroke-width="2.000000" stroke-linejoin="round" stroke-linecap="round"/>
	<path id="Vector 4" d="M293.623 414.744C303.123 408.244 305.623 389.244 323.623 389.244C341.623 389.244 345.702 405.744 356.623 405.744C369.623 405.744 381.123 378.744 395.123 378.744C409.123 378.744 413.623 399.744 421.123 400.244" stroke="#FFFFFF" stroke-opacity="1.000000" stroke-width="2.000000" stroke-linejoin="round" stroke-linecap="round"/>
</svg>
