<svg width="11.000000" height="12.000000" viewBox="0 0 11 12" fill="none" xmlns="http://www.w3.org/2000/svg" xmlns:xlink="http://www.w3.org/1999/xlink">
	<desc>
			Created with Pixso.
	</desc>
	<defs/>
	<path id="T." d="M7.39 1.63L7.39 -0.12L-0.77 -0.12L-0.77 1.63L2.4 1.63L2.4 11.08L4.24 11.08L4.24 1.63L7.39 1.63ZM9.34 11.18Q9.55 11.09 9.73 10.92Q9.91 10.74 9.99 10.53Q10.08 10.31 10.08 10.07Q10.08 9.82 9.99 9.61Q9.91 9.4 9.73 9.22Q9.55 9.04 9.34 8.96Q9.13 8.87 8.88 8.87Q8.59 8.87 8.36 8.98Q8.18 9.07 8.03 9.22Q7.86 9.39 7.77 9.6Q7.68 9.81 7.68 10.07Q7.68 10.31 7.77 10.53Q7.86 10.74 8.03 10.92Q8.21 11.09 8.43 11.18Q8.64 11.27 8.88 11.27Q9.13 11.27 9.34 11.18Z" fill="#FFFFFF" fill-opacity="1.000000" fill-rule="evenodd"/>
</svg>
